<svg width="17" height="16" viewBox="0 0 17 16" fill="none" xmlns="http://www.w3.org/2000/svg">
<path d="M14.1173 0.408447H2.6825C1.42384 0.408447 0.399902 1.43242 0.399902 2.69104V10.4086C0.399902 11.6672 1.42384 12.6912 2.6825 12.6912H3.57821L3.59575 14.7063C3.59731 14.892 3.70396 15.0608 3.87103 15.1419C3.93893 15.1749 4.01203 15.1912 4.08478 15.1912C4.191 15.1912 4.29643 15.1566 4.38368 15.0892L7.49072 12.6912H14.1173C15.376 12.6912 16.3999 11.6672 16.3999 10.4086V2.69104C16.3999 1.43242 15.376 0.408447 14.1173 0.408447ZM15.4217 10.4086C15.4217 11.1278 14.8365 11.7129 14.1173 11.7129H7.32393C7.21581 11.7129 7.11071 11.7488 7.02509 11.8149L4.56537 13.7133L4.55218 12.1978C4.54987 11.9294 4.33156 11.7129 4.06309 11.7129H2.6825C1.96328 11.7129 1.37815 11.1278 1.37815 10.4086V2.69104C1.37815 1.97182 1.96328 1.3867 2.6825 1.3867H14.1173C14.8366 1.3867 15.4217 1.97182 15.4217 2.69104L15.4217 10.4086Z" fill="white"/>
</svg>
