<svg width="18" height="18" viewBox="0 0 18 18" fill="none" xmlns="http://www.w3.org/2000/svg">
<path d="M6 9C6 9.08841 5.96488 9.17319 5.90237 9.2357C5.83986 9.29821 5.75507 9.33333 5.66667 9.33333C5.57826 9.33333 5.49348 9.29821 5.43096 9.2357C5.36845 9.17319 5.33333 9.08841 5.33333 9C5.33333 8.91159 5.36845 8.82681 5.43096 8.7643C5.49348 8.70179 5.57826 8.66667 5.66667 8.66667C5.75507 8.66667 5.83986 8.70179 5.90237 8.7643C5.96488 8.82681 6 8.91159 6 9ZM6 9H5.66667M9.33333 9C9.33333 9.08841 9.29821 9.17319 9.2357 9.2357C9.17319 9.29821 9.08841 9.33333 9 9.33333C8.91159 9.33333 8.82681 9.29821 8.7643 9.2357C8.70179 9.17319 8.66667 9.08841 8.66667 9C8.66667 8.91159 8.70179 8.82681 8.7643 8.7643C8.82681 8.70179 8.91159 8.66667 9 8.66667C9.08841 8.66667 9.17319 8.70179 9.2357 8.7643C9.29821 8.82681 9.33333 8.91159 9.33333 9ZM9.33333 9H9M12.6667 9C12.6667 9.08841 12.6315 9.17319 12.569 9.2357C12.5065 9.29821 12.4217 9.33333 12.3333 9.33333C12.2449 9.33333 12.1601 9.29821 12.0976 9.2357C12.0351 9.17319 12 9.08841 12 9C12 8.91159 12.0351 8.82681 12.0976 8.7643C12.1601 8.70179 12.2449 8.66667 12.3333 8.66667C12.4217 8.66667 12.5065 8.70179 12.569 8.7643C12.6315 8.82681 12.6667 8.91159 12.6667 9ZM12.6667 9H12.3333M17 9C17 10.0506 16.7931 11.0909 16.391 12.0615C15.989 13.0321 15.3997 13.914 14.6569 14.6569C13.914 15.3997 13.0321 15.989 12.0615 16.391C11.0909 16.7931 10.0506 17 9 17C7.94943 17 6.90914 16.7931 5.93853 16.391C4.96793 15.989 4.08601 15.3997 3.34315 14.6569C2.60028 13.914 2.011 13.0321 1.60896 12.0615C1.20693 11.0909 1 10.0506 1 9C1 6.87827 1.84285 4.84344 3.34315 3.34315C4.84344 1.84285 6.87827 1 9 1C11.1217 1 13.1566 1.84285 14.6569 3.34315C16.1571 4.84344 17 6.87827 17 9Z" stroke="#666666" stroke-width="1.33333" stroke-linecap="round" stroke-linejoin="round"/>
</svg>
